<svg width="60" height="60" viewBox="0 0 60 60" fill="none" xmlns="http://www.w3.org/2000/svg">
<path fill-rule="evenodd" clip-rule="evenodd" d="M30 60C46.5685 60 60 46.5685 60 30C60 13.4315 46.5685 0 30 0C13.4315 0 0 13.4315 0 30C0 46.5685 13.4315 60 30 60Z" fill="#F4F8FD"/>
<ellipse cx="30" cy="43" rx="20" ry="5" fill="#E9F0F7"/>
<g filter="url(#filter0_d)">
<path d="M45.0293 20.4773L28.0146 18V27.8239L45.0293 29.7741V20.4773Z" fill="#C0CCDA"/>
<path d="M14.4028 21.2152L28.0146 18V29.1538L14.4028 32.369V21.2152Z" fill="#E9F0F7"/>
<path d="M30.2822 24.9331L45.0295 20.4773V41.5442L30.2822 46V24.9331Z" fill="white"/>
<path d="M14.4028 21.2152L30.2819 24.9331V45.8865L14.4028 41.6658V21.2152Z" fill="white"/>
<path d="M30.282 24.9007L14.4029 21.2152L11 28.651L27.4469 32.8717L30.282 24.9007Z" fill="#F4F8FD"/>
<path d="M30.2822 24.9331L45.0295 20.4773L49.0002 27.9131L34.8207 32.9893L30.2822 24.9331Z" fill="#E9F0F7"/>
</g>
<defs>
<filter id="filter0_d" x="4" y="15" width="46.0002" height="36" filterUnits="userSpaceOnUse" color-interpolation-filters="sRGB">
<feFlood flood-opacity="0" result="BackgroundImageFix"/>
<feColorMatrix in="SourceAlpha" type="matrix" values="0 0 0 0 0 0 0 0 0 0 0 0 0 0 0 0 0 0 127 0"/>
<feOffset dx="-3" dy="1"/>
<feGaussianBlur stdDeviation="2"/>
<feColorMatrix type="matrix" values="0 0 0 0 0.6 0 0 0 0 0.662745 0 0 0 0 0.74902 0 0 0 0.12 0"/>
<feBlend mode="normal" in2="BackgroundImageFix" result="effect1_dropShadow"/>
<feBlend mode="normal" in="SourceGraphic" in2="effect1_dropShadow" result="shape"/>
</filter>
</defs>
</svg>
